<svg width="70" height="62" viewBox="0 0 70 62" fill="none" xmlns="http://www.w3.org/2000/svg">
<path d="M68.513 26.7168C70.0508 29.3652 70.0508 32.6348 68.513 35.2832L55.4659 57.7532C53.9394 60.3821 51.1292 62 48.0892 62H21.9108C18.8708 62 16.0606 60.3821 14.5341 57.7532L1.48703 35.2832C-0.0507726 32.6348 -0.0507716 29.3652 1.48703 26.7168L14.5341 4.24678C16.0606 1.61786 18.8708 8.1312e-08 21.9108 2.13439e-07L48.0892 1.35124e-06C51.1292 1.48337e-06 53.9394 1.61786 55.4659 4.24679L68.513 26.7168Z" fill="#E0CCB4" fill-opacity="0.8"/>
<path d="M67.8211 34.8815L54.774 57.3515C53.3907 59.7339 50.8441 61.2 48.0892 61.2H21.9108C19.1559 61.2 16.6093 59.7339 15.226 57.3515L2.17886 34.8815C0.785284 32.4815 0.785285 29.5185 2.17886 27.1185L15.226 4.64849C16.6093 2.26613 19.1559 0.8 21.9108 0.8L48.0892 0.800001C50.8441 0.800002 53.3907 2.26613 54.774 4.64849L67.8211 27.1185C69.2147 29.5185 69.2147 32.4815 67.8211 34.8815Z" stroke="#F1E3D1" stroke-opacity="0.5" stroke-width="1.6"/>
</svg>
