<svg width="48" height="48" viewBox="0 0 48 48" fill="none" xmlns="http://www.w3.org/2000/svg">
<path d="M11.5 2C12.3284 2 13 2.67158 13 3.5V7.2L16.4413 6.51174C19.7424 5.85152 23.1642 6.16568 26.2898 7.41594L26.6972 7.57886C29.8194 8.82778 33.256 9.06102 36.5184 8.2454C38.033 7.86678 39.5 9.01226 39.5 10.5734V25.3074C39.5 26.596 38.623 27.7192 37.3728 28.0318L36.944 28.139C33.4048 29.0238 29.677 28.7708 26.2898 27.416C23.1642 26.1656 19.7424 25.8516 16.4413 26.5118L13 27.2V43.5C13 44.3284 12.3284 45 11.5 45C10.6716 45 10 44.3284 10 43.5V3.5C10 2.67158 10.6716 2 11.5 2Z" fill="#FAAE27"/>
</svg>
